<?xml version="1.0" encoding="UTF-8"?>
<svg id="Warstwa_1" xmlns="http://www.w3.org/2000/svg" xmlns:xlink="http://www.w3.org/1999/xlink" viewBox="0 0 1200 1200">
  <defs>
    <style>
      .cls-1 {
        fill: url(#Gradient_bez_nazwy_93-4);
      }

      .cls-2 {
        fill: url(#Gradient_bez_nazwy_93-10);
      }

      .cls-3 {
        fill: url(#Gradient_bez_nazwy_93-2);
      }

      .cls-4 {
        fill: #1d1d1b;
      }

      .cls-5 {
        fill: url(#Gradient_bez_nazwy_93);
      }

      .cls-6 {
        fill: url(#Gradient_bez_nazwy_93-3);
      }

      .cls-7 {
        fill: url(#Gradient_bez_nazwy_93-8);
      }

      .cls-8 {
        fill: url(#Gradient_bez_nazwy_93-9);
      }

      .cls-9 {
        fill: url(#Gradient_bez_nazwy_93-7);
      }

      .cls-10 {
        fill: url(#Gradient_bez_nazwy_93-12);
      }

      .cls-11 {
        fill: url(#Gradient_bez_nazwy_93-11);
      }

      .cls-12 {
        fill: url(#Gradient_bez_nazwy_93-13);
      }

      .cls-13 {
        fill: url(#Gradient_bez_nazwy_93-6);
      }

      .cls-14 {
        fill: url(#Gradient_bez_nazwy_93-5);
      }
    </style>
    <linearGradient id="Gradient_bez_nazwy_93" data-name="Gradient bez nazwy 93" x1="134.68" y1="619.55" x2="336.35" y2="619.55" gradientUnits="userSpaceOnUse">
      <stop offset="0" stop-color="#aa8247"/>
      <stop offset="1" stop-color="#e7bd99"/>
    </linearGradient>
    <linearGradient id="Gradient_bez_nazwy_93-2" data-name="Gradient bez nazwy 93" x1="207.46" y1="548.9" x2="375.44" y2="548.9" xlink:href="#Gradient_bez_nazwy_93"/>
    <linearGradient id="Gradient_bez_nazwy_93-3" data-name="Gradient bez nazwy 93" x1="354.55" y1="563.82" x2="1123.91" y2="563.82" xlink:href="#Gradient_bez_nazwy_93"/>
    <linearGradient id="Gradient_bez_nazwy_93-4" data-name="Gradient bez nazwy 93" x1="354.55" y1="563.82" x2="1123.91" y2="563.82" xlink:href="#Gradient_bez_nazwy_93"/>
    <linearGradient id="Gradient_bez_nazwy_93-5" data-name="Gradient bez nazwy 93" x1="354.55" y1="563.82" x2="1123.91" y2="563.82" xlink:href="#Gradient_bez_nazwy_93"/>
    <linearGradient id="Gradient_bez_nazwy_93-6" data-name="Gradient bez nazwy 93" x1="354.55" y1="563.82" x2="1123.91" y2="563.82" xlink:href="#Gradient_bez_nazwy_93"/>
    <linearGradient id="Gradient_bez_nazwy_93-7" data-name="Gradient bez nazwy 93" x1="354.55" y1="563.82" x2="1123.91" y2="563.82" xlink:href="#Gradient_bez_nazwy_93"/>
    <linearGradient id="Gradient_bez_nazwy_93-8" data-name="Gradient bez nazwy 93" x1="354.55" y1="563.82" x2="1123.91" y2="563.82" xlink:href="#Gradient_bez_nazwy_93"/>
    <linearGradient id="Gradient_bez_nazwy_93-9" data-name="Gradient bez nazwy 93" x1="354.55" y1="563.82" x2="1123.91" y2="563.82" xlink:href="#Gradient_bez_nazwy_93"/>
    <linearGradient id="Gradient_bez_nazwy_93-10" data-name="Gradient bez nazwy 93" x1="354.55" y1="563.82" x2="1123.91" y2="563.82" xlink:href="#Gradient_bez_nazwy_93"/>
    <linearGradient id="Gradient_bez_nazwy_93-11" data-name="Gradient bez nazwy 93" x1="354.55" y1="636.17" x2="1123.91" y2="636.17" xlink:href="#Gradient_bez_nazwy_93"/>
    <linearGradient id="Gradient_bez_nazwy_93-12" data-name="Gradient bez nazwy 93" x1="354.55" y1="636.17" x2="1123.91" y2="636.17" xlink:href="#Gradient_bez_nazwy_93"/>
    <linearGradient id="Gradient_bez_nazwy_93-13" data-name="Gradient bez nazwy 93" x1="354.55" y1="636.17" x2="1123.91" y2="636.17" xlink:href="#Gradient_bez_nazwy_93"/>
  </defs>
  <rect class="cls-4" x="-33.45" y="-41.11" width="1282.21" height="1282.21"/>
  <g>
    <g>
      <polygon class="cls-5" points="134.68 665.66 172.21 665.66 198.63 639.23 198.63 638.86 270.93 638.86 336.35 573.44 197.49 573.44 134.68 636.24 134.68 665.66"/>
      <polygon class="cls-3" points="346.33 563.46 375.44 534.35 236.58 534.35 207.46 563.46 346.33 563.46"/>
    </g>
    <g>
      <path d="M438.72,534.34h-63.28v58.96h13.89v-16.9h49.39c10.04,0,18.21-8.17,18.21-18.21v-5.63c0-10.04-8.17-18.21-18.21-18.21ZM443.04,558.19c0,2.39-1.94,4.32-4.32,4.32h-49.39v-14.28h49.39c2.34,0,4.32,1.98,4.32,4.32v5.63Z"/>
      <path class="cls-6" d="M438.72,534.34h-63.28v58.96h13.89v-16.9h49.39c10.04,0,18.21-8.17,18.21-18.21v-5.63c0-10.04-8.17-18.21-18.21-18.21ZM443.04,558.19c0,2.39-1.94,4.32-4.32,4.32h-49.39v-14.28h49.39c2.34,0,4.32,1.98,4.32,4.32v5.63Z"/>
      <path d="M476.27,576.4h40.48l11.27,16.9h16.67l-12.16-18.33c6.81-2.69,11.27-9.23,11.27-16.79v-5.63c0-10.04-8.13-18.21-18.13-18.21h-63.28v58.96h13.89v-16.9ZM476.27,548.24h49.39c2.34,0,4.32,1.98,4.32,4.32v5.63c0,2.39-1.94,4.32-4.32,4.32h-49.39v-14.28Z"/>
      <path class="cls-1" d="M476.27,576.4h40.48l11.27,16.9h16.67l-12.16-18.33c6.81-2.69,11.27-9.23,11.27-16.79v-5.63c0-10.04-8.13-18.21-18.13-18.21h-63.28v58.96h13.89v-16.9ZM476.27,548.24h49.39c2.34,0,4.32,1.98,4.32,4.32v5.63c0,2.39-1.94,4.32-4.32,4.32h-49.39v-14.28Z"/>
      <path d="M567.44,593.31h44.99c10.04,0,18.21-8.17,18.21-18.21v-22.53c0-10.04-8.17-18.21-18.21-18.21h-44.99c-10.04,0-18.21,8.17-18.21,18.21v22.53c0,10.04,8.17,18.21,18.21,18.21ZM563.12,552.56c0-2.38,1.94-4.32,4.32-4.32h44.99c2.43,0,4.4,1.94,4.4,4.32v22.53c0,2.38-1.93,4.24-4.4,4.24h-44.99c-2.38,0-4.32-1.9-4.32-4.24v-22.53Z"/>
      <path class="cls-14" d="M567.44,593.31h44.99c10.04,0,18.21-8.17,18.21-18.21v-22.53c0-10.04-8.17-18.21-18.21-18.21h-44.99c-10.04,0-18.21,8.17-18.21,18.21v22.53c0,10.04,8.17,18.21,18.21,18.21ZM563.12,552.56c0-2.38,1.94-4.32,4.32-4.32h44.99c2.43,0,4.4,1.94,4.4,4.32v22.53c0,2.38-1.93,4.24-4.4,4.24h-44.99c-2.38,0-4.32-1.9-4.32-4.24v-22.53Z"/>
      <path d="M636.09,552.56v22.53c0,10.04,8.17,18.21,18.21,18.21h45.07c10.04,0,18.21-8.17,18.21-18.21v-18.21h-47.69v13.89h33.88v4.32c0,2.26-2.06,4.24-4.4,4.24h-45.07c-2.34,0-4.24-1.9-4.24-4.24v-22.53c0-2.34,1.94-4.32,4.24-4.32h63.28v-13.89h-63.28c-10.04,0-18.21,8.17-18.21,18.21Z"/>
      <path class="cls-13" d="M636.09,552.56v22.53c0,10.04,8.17,18.21,18.21,18.21h45.07c10.04,0,18.21-8.17,18.21-18.21v-18.21h-47.69v13.89h33.88v4.32c0,2.26-2.06,4.24-4.4,4.24h-45.07c-2.34,0-4.24-1.9-4.24-4.24v-22.53c0-2.34,1.94-4.32,4.24-4.32h63.28v-13.89h-63.28c-10.04,0-18.21,8.17-18.21,18.21Z"/>
      <path d="M804.43,558.19v-5.63c0-10.04-8.13-18.21-18.13-18.21h-63.28v58.96h13.89v-16.9h40.48l11.27,16.9h16.67l-12.16-18.33c6.81-2.69,11.27-9.23,11.27-16.79ZM790.62,558.19c0,2.39-1.94,4.32-4.32,4.32h-49.39v-14.28h49.39c2.34,0,4.32,1.98,4.32,4.32v5.63Z"/>
      <path class="cls-9" d="M804.43,558.19v-5.63c0-10.04-8.13-18.21-18.13-18.21h-63.28v58.96h13.89v-16.9h40.48l11.27,16.9h16.67l-12.16-18.33c6.81-2.69,11.27-9.23,11.27-16.79ZM790.62,558.19c0,2.39-1.94,4.32-4.32,4.32h-49.39v-14.28h49.39c2.34,0,4.32,1.98,4.32,4.32v5.63Z"/>
      <path d="M809.87,552.56v22.53c0,10.04,8.21,18.21,18.29,18.21h63.28v-13.97h-63.28c-2.38,0-4.32-1.9-4.32-4.24v-4.32h67.6v-13.89h-67.6v-4.32c0-2.38,1.94-4.32,4.32-4.32h63.28v-13.89h-63.28c-10.09,0-18.29,8.17-18.29,18.21Z"/>
      <path class="cls-7" d="M809.87,552.56v22.53c0,10.04,8.21,18.21,18.29,18.21h63.28v-13.97h-63.28c-2.38,0-4.32-1.9-4.32-4.24v-4.32h67.6v-13.89h-67.6v-4.32c0-2.38,1.94-4.32,4.32-4.32h63.28v-13.89h-63.28c-10.09,0-18.29,8.17-18.29,18.21Z"/>
      <path d="M896.89,552.56c0,10.04,8.17,18.21,18.21,18.21h45.07c2.38,0,4.32,1.94,4.32,4.32s-1.98,4.24-4.32,4.24h-63.28v13.97h63.28c10.04,0,18.21-8.17,18.21-18.21s-8.17-18.21-18.21-18.21h-45.07c-2.38,0-4.32-1.94-4.32-4.32s1.98-4.32,4.32-4.32h63.28v-13.89h-63.28c-10.04,0-18.21,8.17-18.21,18.21Z"/>
      <path class="cls-8" d="M896.89,552.56c0,10.04,8.17,18.21,18.21,18.21h45.07c2.38,0,4.32,1.94,4.32,4.32s-1.98,4.24-4.32,4.24h-63.28v13.97h63.28c10.04,0,18.21-8.17,18.21-18.21s-8.17-18.21-18.21-18.21h-45.07c-2.38,0-4.32-1.94-4.32-4.32s1.98-4.32,4.32-4.32h63.28v-13.89h-63.28c-10.04,0-18.21,8.17-18.21,18.21Z"/>
      <path d="M983.83,552.56c0,10.04,8.17,18.21,18.21,18.21h45.07c2.38,0,4.32,1.94,4.32,4.32s-1.98,4.24-4.32,4.24h-63.28v13.97h63.28c10.04,0,18.21-8.17,18.21-18.21s-8.17-18.21-18.21-18.21h-45.07c-2.38,0-4.32-1.94-4.32-4.32s1.98-4.32,4.32-4.32h63.28v-13.89h-63.28c-10.04,0-18.21,8.17-18.21,18.21Z"/>
      <path class="cls-2" d="M983.83,552.56c0,10.04,8.17,18.21,18.21,18.21h45.07c2.38,0,4.32,1.94,4.32,4.32s-1.98,4.24-4.32,4.24h-63.28v13.97h63.28c10.04,0,18.21-8.17,18.21-18.21s-8.17-18.21-18.21-18.21h-45.07c-2.38,0-4.32-1.94-4.32-4.32s1.98-4.32,4.32-4.32h63.28v-13.89h-63.28c-10.04,0-18.21,8.17-18.21,18.21Z"/>
      <path d="M371.93,624.91v22.53c0,10.04,8.17,18.21,18.21,18.21h45.07c10.04,0,18.21-8.17,18.21-18.21v-18.21h-47.69v13.89h33.88v4.32c0,2.26-2.06,4.24-4.4,4.24h-45.07c-2.34,0-4.24-1.9-4.24-4.24v-22.53c0-2.34,1.94-4.32,4.24-4.32h63.28v-13.89h-63.28c-10.04,0-18.21,8.17-18.21,18.21Z"/>
      <path class="cls-11" d="M371.93,624.91v22.53c0,10.04,8.17,18.21,18.21,18.21h45.07c10.04,0,18.21-8.17,18.21-18.21v-18.21h-47.69v13.89h33.88v4.32c0,2.26-2.06,4.24-4.4,4.24h-45.07c-2.34,0-4.24-1.9-4.24-4.24v-22.53c0-2.34,1.94-4.32,4.24-4.32h63.28v-13.89h-63.28c-10.04,0-18.21,8.17-18.21,18.21Z"/>
      <polygon points="502.11 626.85 479.6 606.69 458.76 606.69 495.16 639.26 495.16 665.65 509.14 665.65 509.14 639.26 545.54 606.69 524.71 606.69 502.11 626.85"/>
      <polygon class="cls-10" points="502.11 626.85 479.6 606.69 458.76 606.69 495.16 639.26 495.16 665.65 509.14 665.65 509.14 639.26 545.54 606.69 524.71 606.69 502.11 626.85"/>
      <path d="M623.41,606.69c-3.68,0-7.17,1.97-9.08,5.13l-23.91,38.29-23.83-38.21c-2.05-3.31-5.36-5.21-9.09-5.21-5.88,0-10.55,4.63-10.65,10.57v48.39h13.89v-36.81l19.78,31.67c1.92,3.17,5.4,5.14,9.09,5.14h1.61c3.72,0,7.15-1.95,9.16-5.21l19.71-31.6v36.81h13.89v-48.39c0-5.83-4.74-10.57-10.57-10.57Z"/>
      <path class="cls-12" d="M623.41,606.69c-3.68,0-7.17,1.97-9.08,5.13l-23.91,38.29-23.83-38.21c-2.05-3.31-5.36-5.21-9.09-5.21-5.88,0-10.55,4.63-10.65,10.57v48.39h13.89v-36.81l19.78,31.67c1.92,3.17,5.4,5.14,9.09,5.14h1.61c3.72,0,7.15-1.95,9.16-5.21l19.71-31.6v36.81h13.89v-48.39c0-5.83-4.74-10.57-10.57-10.57Z"/>
    </g>
  </g>
</svg>