<?xml version="1.0" encoding="utf-8"?>
<svg viewBox="40.9001 175.07 394.6021 122.4543" xmlns="http://www.w3.org/2000/svg">
  <path d="M 34.365 135.398 L 30.462 133.493 Q 28.972 135.532 28.796 136.184 Q 28.671 136.65 28.242 136.966 Q 27.812 137.282 27.626 137.282 Q 27.098 137.282 27.098 136.878 Q 27.098 136.65 27.724 135.568 Q 28.351 134.487 29.448 133.017 Q 28.837 132.768 28.692 132.686 Q 28.547 132.603 28.578 132.37 Q 28.609 132.137 28.941 131.64 Q 29.23 131.205 29.375 131.055 Q 29.52 130.905 29.717 130.817 Q 29.914 130.729 30.131 130.698 Q 30.348 130.667 31.353 130.543 Q 32.17 129.435 33.128 128.152 Q 34.085 126.868 34.624 126.154 Q 32.998 126.371 32.357 126.516 Q 31.673 126.651 31.213 126.739 Q 30.752 126.827 30.566 126.894 Q 30.379 126.961 30.379 127.085 Q 30.379 127.199 30.607 127.241 Q 30.835 127.282 31.182 127.282 Q 31.528 127.282 31.72 127.308 Q 31.911 127.334 31.911 127.427 Q 31.911 127.53 31.658 127.546 Q 31.404 127.562 30.235 127.613 Q 29.572 127.634 29.122 127.655 Q 28.671 127.675 28.495 127.675 Q 28.257 127.675 28.123 127.53 Q 27.988 127.386 27.988 127.147 Q 27.988 126.971 28.185 126.495 Q 28.382 126.019 28.744 125.533 Q 29.106 125.046 29.572 124.777 Q 30.1 124.456 31.213 124.13 Q 32.326 123.804 33.687 123.602 Q 35.048 123.4 36.383 123.4 Q 37.191 123.4 37.962 123.493 Q 38.733 123.587 39.359 123.721 Q 39.986 123.856 40.348 123.99 Q 41.29 124.301 41.792 124.932 Q 42.294 125.564 42.294 126.319 Q 42.294 127.054 42.04 127.753 Q 41.787 128.452 41.264 129.047 Q 40.741 129.642 40.006 130.015 Q 39.406 130.325 38.185 130.646 Q 36.963 130.967 35.234 131.216 Q 33.506 131.464 31.373 131.578 Q 32.967 132.137 34.349 132.701 Q 35.731 133.265 36.678 133.705 Q 37.626 134.145 38.164 134.425 Q 38.92 134.818 39.147 134.994 Q 39.375 135.17 39.447 135.449 Q 39.52 135.729 39.52 136.371 Q 39.52 137.095 39.432 137.442 Q 39.344 137.789 39.054 137.789 Q 38.961 137.789 38.562 137.587 Q 38.164 137.385 37.46 136.997 Q 36.756 136.609 36.182 136.303 Q 35.607 135.998 34.365 135.398 Z M 35.276 126.05 Q 35.286 126.123 35.291 126.185 Q 35.296 126.247 35.296 126.361 Q 35.296 126.651 35.115 127.028 Q 34.934 127.406 34.649 127.805 Q 34.365 128.203 33.801 128.943 Q 33.236 129.684 32.76 130.305 Q 34.934 129.891 36.471 129.508 Q 38.009 129.125 39.002 128.736 Q 39.996 128.348 40.498 127.919 Q 41 127.489 41 127.023 Q 41 126.506 39.949 126.211 Q 38.899 125.916 37.377 125.916 Q 37.067 125.916 36.72 125.931 Q 36.373 125.947 35.892 125.993 Q 35.41 126.04 35.276 126.05 Z M 46.854 133.069 L 46.854 133.762 Q 46.17 134.383 45.756 134.59 Q 45.342 134.797 44.566 134.756 Q 43.22 136.35 42.195 136.35 Q 41.616 136.35 41.139 135.967 Q 40.663 135.584 40.379 134.921 Q 40.094 134.259 40.094 133.441 Q 40.094 132.779 40.534 131.971 Q 40.974 131.164 41.673 130.465 Q 42.371 129.766 43.168 129.337 Q 43.965 128.907 44.649 128.907 Q 45.135 128.907 45.415 129.057 Q 45.694 129.207 45.694 129.477 Q 45.694 129.684 45.456 129.953 Q 45.849 130.036 45.994 130.227 Q 46.139 130.419 46.139 130.926 Q 46.139 131.423 45.906 132.178 Q 45.673 132.934 45.27 133.596 L 45.456 133.783 L 45.611 133.783 Q 45.787 133.783 45.958 133.695 Q 46.129 133.607 46.263 133.509 Q 46.398 133.41 46.854 133.069 Z M 44.721 130.346 Q 43.862 130.864 43.251 131.283 Q 42.64 131.702 42.216 132.132 Q 41.792 132.561 41.647 132.996 Q 41.388 134.155 41.388 134.249 Q 41.388 134.932 42.34 134.932 Q 42.785 134.932 43.831 134.166 Q 43.655 133.679 43.655 133.234 Q 43.655 132.582 43.924 131.904 Q 44.193 131.226 44.721 130.346 Z M 53.288 133.069 L 53.288 133.762 Q 52.605 134.383 52.191 134.59 Q 51.777 134.797 51 134.756 Q 49.654 136.35 48.63 136.35 Q 48.05 136.35 47.574 135.967 Q 47.098 135.584 46.813 134.921 Q 46.528 134.259 46.528 133.441 Q 46.528 132.779 46.968 131.971 Q 47.408 131.164 48.107 130.465 Q 48.806 129.766 49.603 129.337 Q 50.4 128.907 51.083 128.907 Q 51.57 128.907 51.849 129.057 Q 52.129 129.207 52.129 129.477 Q 52.129 129.684 51.89 129.953 Q 52.284 130.036 52.429 130.227 Q 52.574 130.419 52.574 130.926 Q 52.574 131.423 52.341 132.178 Q 52.108 132.934 51.704 133.596 L 51.89 133.783 L 52.046 133.783 Q 52.222 133.783 52.392 133.695 Q 52.563 133.607 52.698 133.509 Q 52.832 133.41 53.288 133.069 Z M 51.155 130.346 Q 50.296 130.864 49.686 131.283 Q 49.075 131.702 48.65 132.132 Q 48.226 132.561 48.081 132.996 Q 47.822 134.155 47.822 134.249 Q 47.822 134.932 48.775 134.932 Q 49.22 134.932 50.265 134.166 Q 50.089 133.679 50.089 133.234 Q 50.089 132.582 50.358 131.904 Q 50.628 131.226 51.155 130.346 Z M 57.797 134.507 Q 59.225 133.245 60.25 132.308 Q 61.275 131.371 61.86 130.833 Q 62.445 130.294 62.89 129.922 Q 63.335 129.549 63.459 129.549 Q 63.697 129.539 63.915 130.041 Q 64.132 130.543 64.132 130.843 Q 64.132 131.04 63.475 131.769 Q 62.817 132.499 62.491 132.934 Q 62.165 133.369 62.165 133.845 Q 62.165 134.124 62.352 134.295 Q 62.538 134.466 62.797 134.466 Q 63.097 134.466 63.516 134.155 Q 63.935 133.845 64.836 133.048 L 64.836 133.783 Q 63.935 134.632 63.2 135.248 Q 62.465 135.863 61.922 136.169 Q 61.379 136.474 61.016 136.474 Q 60.695 136.474 60.478 136.231 Q 60.261 135.988 60.261 135.625 Q 60.261 135.273 60.385 134.911 Q 60.509 134.549 60.768 134.052 Q 61.027 133.555 61.451 132.856 Q 61.875 132.158 62.227 131.578 Q 61.171 132.437 60.354 133.234 Q 59.536 134.031 59.018 134.626 Q 58.501 135.222 58.201 135.563 Q 57.621 136.205 57.124 136.205 Q 56.586 136.205 56.586 135.439 Q 56.586 135.129 56.989 134.326 Q 57.393 133.524 58.138 132.282 Q 58.201 132.199 58.201 132.023 Q 58.201 131.816 57.994 131.816 Q 57.766 131.816 57.336 132.246 Q 56.907 132.675 55.675 134.042 Q 55.333 134.425 54.904 135.041 Q 54.474 135.656 54.288 135.863 Q 54.101 136.071 53.915 136.071 Q 53.542 136.071 53.221 135.408 Q 52.901 134.746 52.901 133.866 Q 52.901 133.224 53.113 132.758 Q 53.325 132.292 53.77 131.599 Q 54.464 130.595 54.904 130.165 Q 55.344 129.735 55.83 129.735 Q 56.13 129.735 56.337 129.854 Q 56.544 129.973 56.544 130.18 Q 56.544 130.398 56.166 130.895 Q 55.789 131.392 55.209 131.92 Q 54.898 132.22 54.619 132.66 Q 54.339 133.1 54.339 133.296 Q 54.339 133.576 54.557 133.576 Q 54.733 133.576 55.447 132.851 Q 56.161 132.127 57.015 131.273 Q 57.869 130.419 58.599 129.854 Q 59.329 129.29 59.836 129.29 Q 60.147 129.29 60.349 129.523 Q 60.55 129.756 60.55 130.098 Q 60.55 130.325 60.24 130.921 Q 59.929 131.516 59.334 132.391 Q 58.739 133.265 57.797 134.507 Z M 72.389 125.729 Q 72.669 125.657 72.953 125.584 Q 73.238 125.512 73.533 125.46 Q 73.828 125.408 74.108 125.408 Q 74.708 125.408 75.138 125.678 Q 75.567 125.947 75.779 126.407 Q 75.992 126.868 75.992 127.406 Q 75.992 128.245 75.686 129.326 Q 75.381 130.408 74.812 131.526 Q 74.242 132.644 73.476 133.638 Q 72.431 134.984 70.966 135.807 Q 69.501 136.629 68.28 136.629 Q 67.379 136.629 66.691 136.138 Q 66.002 135.646 65.614 134.709 Q 65.226 133.772 65.226 132.51 Q 65.226 130.812 66.152 129.109 Q 67.079 127.406 68.492 126.024 Q 69.905 124.642 71.344 123.809 Q 72.783 122.976 73.683 122.976 Q 74.418 122.976 74.812 123.426 Q 75.205 123.876 75.546 124.88 Q 74.584 124.912 73.87 125.113 Q 73.155 125.315 72.389 125.729 Z M 69.781 127.831 Q 69.056 128.607 68.316 129.834 Q 67.576 131.06 67.12 132.24 Q 66.665 133.421 66.665 134.042 Q 66.665 135.584 68.104 135.584 Q 69.108 135.584 70.697 134.228 Q 72.286 132.872 73.461 130.962 Q 74.636 129.052 74.636 127.489 Q 74.636 126.34 73.725 126.34 Q 73.021 126.34 72.006 126.899 Q 70.992 127.458 70.06 128.483 Q 69.729 128.855 68.746 130.305 Q 68.932 129.332 69.781 127.831 Z M 82.282 133.089 L 82.282 133.804 Q 81.661 134.425 81.34 134.704 Q 81.019 134.984 80.46 135.273 Q 80.46 136.215 80.367 136.878 Q 80.274 137.54 79.953 138.27 Q 79.632 139 78.959 139.87 Q 78.296 140.729 77.655 141.189 Q 77.013 141.65 76.651 141.65 Q 76.247 141.65 75.905 140.988 Q 75.564 140.325 75.564 139.342 Q 75.564 138.4 75.885 137.354 Q 76.205 136.309 76.878 134.652 Q 76.371 133.99 76.371 133.338 Q 76.371 132.81 76.64 132.53 Q 76.909 132.251 77.406 132.023 Q 77.769 131.454 78.095 131.055 Q 78.421 130.657 78.98 129.994 Q 80.056 127.344 81.505 124.818 Q 81.909 124.114 82.085 123.871 Q 82.261 123.628 82.458 123.628 Q 82.634 123.628 82.768 123.887 Q 82.903 124.146 82.903 124.56 Q 82.903 125.067 82.794 125.491 Q 82.686 125.916 82.484 126.345 Q 82.282 126.775 81.925 127.375 Q 81.568 127.976 81.485 128.121 Q 80.967 129.031 80.315 130.139 Q 79.663 131.247 79.285 131.888 Q 78.907 132.53 78.742 132.851 Q 79.301 133.338 79.627 133.69 Q 79.953 134.042 80.191 134.528 Q 80.543 134.394 80.833 134.207 Q 81.122 134.021 81.516 133.695 Q 81.909 133.369 82.282 133.089 Z M 79.187 135.863 L 79.166 135.646 Q 78.876 135.677 78.7 135.662 Q 78.524 135.646 78.291 135.574 Q 78.058 135.501 77.929 135.439 Q 77.8 135.377 77.644 135.315 Q 76.858 137.24 76.858 138.513 Q 76.858 139.145 77.049 139.59 Q 77.241 140.035 77.499 140.035 Q 77.769 140.035 78.177 139.559 Q 78.586 139.083 78.886 138.151 Q 79.187 137.22 79.187 135.863 Z M 94.959 133.048 L 94.959 133.721 Q 93.219 135.656 91.765 136.914 Q 90.311 138.172 88.924 138.85 Q 87.536 139.528 86.243 139.528 Q 85.125 139.528 84.322 139.083 Q 83.52 138.638 83.111 137.784 Q 82.702 136.93 82.702 135.76 Q 82.702 134.839 82.997 133.809 Q 83.292 132.779 83.851 131.728 Q 84.41 130.677 85.223 129.559 Q 86.036 128.441 87.133 127.21 Q 88.271 125.936 89.379 125.01 Q 90.487 124.083 91.387 123.555 Q 92.288 123.028 93.059 122.769 Q 93.83 122.51 94.337 122.51 Q 94.855 122.51 95.217 122.758 Q 95.58 123.007 95.776 123.483 Q 95.973 123.959 95.973 124.58 Q 95.973 125.75 95.176 127.184 Q 94.379 128.617 93.188 129.953 Q 91.998 131.288 90.916 132.132 Q 89.835 132.975 89.358 132.975 Q 89.037 132.975 88.763 132.722 Q 88.489 132.468 88.489 132.147 Q 88.489 131.557 89.115 130.719 Q 89.741 129.88 90.482 129.182 Q 91.222 128.483 91.367 128.483 Q 91.439 128.483 91.439 128.545 Q 91.439 128.638 91.33 128.866 Q 91.222 129.094 91.222 129.145 Q 91.222 129.228 91.284 129.228 Q 91.46 129.228 92.298 128.286 Q 93.137 127.344 93.835 126.211 Q 94.534 125.077 94.534 124.353 Q 94.534 124.052 94.405 123.892 Q 94.275 123.731 94.017 123.731 Q 93.292 123.731 91.817 124.906 Q 90.342 126.081 88.794 127.898 Q 87.247 129.715 86.211 131.65 Q 85.176 133.586 85.176 135.056 Q 85.176 135.905 85.43 136.474 Q 85.684 137.044 86.175 137.354 Q 86.667 137.665 87.361 137.665 Q 88.861 137.665 90.766 136.495 Q 92.671 135.325 94.959 133.048 Z M 101.321 133.069 L 101.321 133.762 Q 100.638 134.383 100.224 134.59 Q 99.81 134.797 99.033 134.756 Q 97.688 136.35 96.663 136.35 Q 96.083 136.35 95.607 135.967 Q 95.131 135.584 94.846 134.921 Q 94.561 134.259 94.561 133.441 Q 94.561 132.779 95.001 131.971 Q 95.441 131.164 96.14 130.465 Q 96.839 129.766 97.636 129.337 Q 98.433 128.907 99.116 128.907 Q 99.603 128.907 99.882 129.057 Q 100.162 129.207 100.162 129.477 Q 100.162 129.684 99.924 129.953 Q 100.317 130.036 100.462 130.227 Q 100.607 130.419 100.607 130.926 Q 100.607 131.423 100.374 132.178 Q 100.141 132.934 99.737 133.596 L 99.924 133.783 L 100.079 133.783 Q 100.255 133.783 100.426 133.695 Q 100.596 133.607 100.731 133.509 Q 100.866 133.41 101.321 133.069 Z M 99.189 130.346 Q 98.329 130.864 97.719 131.283 Q 97.108 131.702 96.684 132.132 Q 96.259 132.561 96.114 132.996 Q 95.855 134.155 95.855 134.249 Q 95.855 134.932 96.808 134.932 Q 97.253 134.932 98.298 134.166 Q 98.122 133.679 98.122 133.234 Q 98.122 132.582 98.392 131.904 Q 98.661 131.226 99.189 130.346 Z M 105.83 133.11 Q 104.919 134.145 104.2 134.87 Q 103.48 135.594 103.03 135.951 Q 102.58 136.309 102.414 136.309 Q 102.145 136.309 101.808 135.874 Q 101.472 135.439 101.234 134.766 Q 100.996 134.093 100.996 133.4 Q 100.996 132.396 101.969 131.376 Q 102.942 130.356 104.184 129.684 Q 105.426 129.011 106.047 129.011 Q 106.555 129.011 107.041 129.653 Q 107.838 127.986 108.558 126.692 Q 109.277 125.398 109.764 124.767 Q 110.25 124.135 110.457 124.135 Q 110.685 124.135 110.876 124.358 Q 111.068 124.58 111.068 124.86 Q 111.068 125.398 110.281 126.708 Q 109.494 128.017 108.728 129.259 Q 107.962 130.501 107.414 131.707 Q 106.865 132.913 106.865 133.938 Q 106.865 134.87 107.466 134.87 Q 107.828 134.87 108.376 134.461 Q 108.925 134.052 109.94 133.089 L 109.94 133.845 Q 107.704 136.733 106.492 136.733 Q 106.006 136.733 105.794 136.36 Q 105.582 135.988 105.582 135.253 Q 105.582 134.259 105.83 133.11 Z M 106.596 130.584 Q 105.675 130.895 104.433 131.583 Q 103.19 132.271 102.932 132.53 Q 102.704 132.737 102.528 133.307 Q 102.352 133.876 102.352 134.166 Q 102.352 134.342 102.455 134.456 Q 102.559 134.57 102.714 134.57 Q 102.859 134.57 103.045 134.445 Q 103.232 134.321 103.641 133.959 Q 104.05 133.596 104.174 133.493 Q 104.35 133.338 104.955 132.825 Q 105.561 132.313 105.84 132.023 Q 106.12 131.733 106.317 131.376 Q 106.513 131.019 106.596 130.584 Z M 111.395 133.462 L 111.395 133.721 Q 111.395 134.331 111.696 134.673 Q 111.996 135.015 112.482 135.015 Q 112.99 135.015 113.533 134.777 Q 114.076 134.538 114.615 134.145 Q 115.153 133.752 115.929 133.089 L 115.929 133.721 Q 114.76 135.129 113.735 135.879 Q 112.71 136.629 111.654 136.629 Q 110.733 136.629 110.195 135.915 Q 109.656 135.201 109.656 133.959 Q 109.656 132.872 110.164 131.987 Q 110.671 131.102 111.82 130.118 Q 112.607 129.446 113.383 129.104 Q 114.159 128.762 114.77 128.762 Q 115.257 128.762 115.541 128.985 Q 115.826 129.207 115.826 129.653 Q 115.826 130.305 115.339 130.952 Q 114.853 131.599 113.854 132.235 Q 112.855 132.872 111.395 133.462 Z M 111.499 132.789 Q 112.431 132.427 113.093 131.888 Q 113.756 131.35 114.071 130.859 Q 114.387 130.367 114.387 130.139 Q 114.387 129.901 114.17 129.901 Q 113.983 129.901 113.564 130.139 Q 113.145 130.377 112.715 130.76 Q 112.286 131.143 111.944 131.661 Q 111.602 132.178 111.499 132.789 Z" transform="matrix(4.336019, -0.019094, 0.151569, 4.17285, -91.323541, -307.104314)" style="fill: rgb(255, 255, 255); paint-order: stroke markers;"/>
</svg>